<svg id="レイヤー_1" data-name="レイヤー 1" xmlns="http://www.w3.org/2000/svg" width="90.39mm" height="36.04mm" viewBox="0 0 256.21 102.17">
  <defs>
    <style>
      .cls-1 {
        fill: #fff;
      }
    </style>
  </defs>
  <title>logo</title>
  <g>
    <g>
      <path class="cls-1" d="M182.67,455a14.15,14.15,0,0,1-1.53,2.89l-2.66-1.81a2.38,2.38,0,0,0,.2-.25h-2.21v1.58a17.44,17.44,0,0,0,3.51,4.73l-1.83,2.53a15.62,15.62,0,0,1-1.68-3.11v10.6h-2.89V461.69a18.43,18.43,0,0,1-2.64,5.6l-1.15-3.94a23.15,23.15,0,0,0,3.51-7.51h-3v-2.91h3.32v-4.37h2.89v4.37h2.76V455a19,19,0,0,0,2-5.8l3,.35c-.15.71-.27,1.28-.6,2.51h1.58v-3.51h3v3.51h5.19V455H188.2v3h5.65v3h-4.72a17.88,17.88,0,0,0,5.14,6.05l-1.4,3.41a18.2,18.2,0,0,1-4.67-6.35v8h-3v-8a18.82,18.82,0,0,1-5.25,6.25l-1.86-2.86a19.42,19.42,0,0,0,6.21-6.53h-5.1v-3h6v-3Z" transform="translate(-169.79 -370.25)"/>
      <path class="cls-1" d="M195.25,468.25c1.46-.13,2.86-.25,5.05-.5V461h-4.52v-3h12v3h-4.32v6.28c2.13-.3,3.77-.58,5.12-.8l0,3c-3.52.75-8.32,1.38-12.91,1.93ZM216,452.3h2.91v3H211.6c.35,8.62,2.59,13,3.74,13,.91,0,1.51-2.18,1.86-3.59l2.09,2.51c-.25,1.11-1.18,5-3.67,5-1.33,0-6.58-1.13-7.21-16.91h-13v-3h12.93c0-.7-.07-3.24-.07-3.77h3.24c0,.41,0,2.16.05,3.77h3.56a15.56,15.56,0,0,0-2.84-2.34l2.24-1.63a12.81,12.81,0,0,1,3.34,2.64Z" transform="translate(-169.79 -370.25)"/>
      <path class="cls-1" d="M225.72,456.67a33.67,33.67,0,0,1-4.05,2.11l-1.56-3.09c6.11-2.38,9.1-5.17,10.45-7.18h3.57c1.35,1.71,3.82,4.52,10.37,7.18l-1.61,3.07a25.1,25.1,0,0,1-4-2.14v1.43H225.72Zm14.56,15.75c-.27-.5-.45-.88-1-1.78a159.69,159.69,0,0,1-17.48,1.08l-.4-3.17,3.59,0a38.21,38.21,0,0,0,2.16-5.2h-6v-2.94h22.35v2.94H230.74c-1,2.23-1.58,3.66-2.36,5.17.8,0,5-.1,9.11-.43-.55-.75-1.2-1.58-2.53-3.11l2.66-1.43a40.28,40.28,0,0,1,5.53,7.21Zm-3.34-17.16a24.91,24.91,0,0,1-4.62-4.24,20.06,20.06,0,0,1-4.52,4.24Z" transform="translate(-169.79 -370.25)"/>
      <path class="cls-1" d="M252.19,472.22h-3.14V463.1a28.59,28.59,0,0,1-2.87,2.24l-1-3.45a17.82,17.82,0,0,0,6.43-6.73h-6.05v-2.93h3.52v-3.72h3.14v3.72H255v2.93a23.62,23.62,0,0,1-2.31,3.95,12,12,0,0,0,3.49,2.91L254.62,465a17.81,17.81,0,0,1-2.43-2.59Zm8.08-23.71h3.19v6.73h5.18v3.19h-5.18v9.84h5.65v3.17H254.19v-3.17h6.08v-9.84h-4.92v-3.19h4.92Z" transform="translate(-169.79 -370.25)"/>
      <path class="cls-1" d="M298.75,472a15.62,15.62,0,0,1-4.6-3.67v2c0,.65,0,1.86-1.81,1.86h-3L289,470c-.65.32-1.81.9-3.51,1.6l-1-2.53a30.32,30.32,0,0,0,5-2.19,14.28,14.28,0,0,0-1.93-2c-.8.63-1.18.88-1.68,1.23l-1.41-2.16v5.85c0,.63,0,2.49-1.91,2.49h-2.26l-.58-2.76h1.81c.46,0,.46-.33.46-.51v-2.79h-2a15.38,15.38,0,0,1-1.31,6.16l-2.38-2.16c.4-.81,1.1-2.21,1.1-5.8v-10.7h7.11v9.94a11.63,11.63,0,0,0,2.92-2h-2.52v-2.31h4.3a11.3,11.3,0,0,0,.68-1.53h-4.37v-2.19H287a12.15,12.15,0,0,0-.68-1.56l2.61-.62a13.67,13.67,0,0,1,.81,2.18h.65c.17-.88.25-1.56.33-2.18l2.83.12c-.12.88-.22,1.36-.37,2.06h1.63a14.4,14.4,0,0,0,.9-2.21l2.67.75c-.38.81-.43.91-.73,1.46h1.86v2.19h-4.22a10.82,10.82,0,0,0,.67,1.53h4.12v2.31h-2.36a14.3,14.3,0,0,0,2.77,2L299,466a8.88,8.88,0,0,1-1.11-.78,15.11,15.11,0,0,1-1.7,1.63l-1.69-1.76A11.23,11.23,0,0,0,296,463.5a15.08,15.08,0,0,1-1.38-1.83h-4a15.11,15.11,0,0,1-1.21,1.48,11.86,11.86,0,0,1,2,2.24L290,466.57l.8,2.36a8.71,8.71,0,0,1-1,.65h1.16c.52,0,.52-.28.52-.5v-6.91h2.69v3.32a15.27,15.27,0,0,0,6.13,4Zm-16.48-23.56h3v1.18h6.15v-1.18h3v1.18h5.65v2.51h-5.65v1.11h-3v-1.11h-6.15v1.14h-3v-1.14H276.6v-2.51h5.67Zm-2.36,7.94v2.39h2v-2.39Zm0,4.82v2.54h2v-2.54Zm12.66-3.41c-.23.62-.4,1.05-.63,1.53h1.56a10.94,10.94,0,0,1-.45-1.53Z" transform="translate(-169.79 -370.25)"/>
      <path class="cls-1" d="M324.26,449.64v21.9H302.61v-21.9Zm-12.4,3h-6.11V459h6.11Zm0,9.22h-6.11v6.73h6.11Zm9.26-9.22h-6.25V459h6.25Zm0,9.22h-6.25v6.73h6.25Z" transform="translate(-169.79 -370.25)"/>
      <path class="cls-1" d="M331.07,463.63v8.54h-3.14V452H337v-3.44h3.19V452h9v18a2.07,2.07,0,0,1-2.24,2.26H342.4l-.53-3.19h3.56c.38,0,.66-.1.66-.61v-4.72l-1.74,2.46a14.73,14.73,0,0,1-5.72-7.43,15.4,15.4,0,0,1-5.85,7.41Zm0-8.67v8.27a12.76,12.76,0,0,0,5.7-8.27Zm15,0h-5.73c.3,1.89,1.11,5.18,5.73,8.32Z" transform="translate(-169.79 -370.25)"/>
      <path class="cls-1" d="M354,469.3c1.33-.05,2.54-.07,4-.17v-1.91a30.72,30.72,0,0,1-5.37,1.68l-1.06-2.76a20.34,20.34,0,0,0,7.91-2.46h-7.61V461h10.25v-1.74h3.19V461h10.12v2.71h-3.39l2.26,1.35a27.38,27.38,0,0,1-3.21,2.26,19.74,19.74,0,0,0,4.79,1.71l-1.58,3.09c-3-1-8.44-3.21-10.67-8.24a17.06,17.06,0,0,1-2.62,1.89v3.19c1.71-.15,3.39-.38,5.2-.63V471c-3.91.57-6.1.75-11.88,1.13Zm-.3-20.49a16.78,16.78,0,0,1,3.17,3.24l-2.34,2a15.38,15.38,0,0,0-2.91-3.19Zm3.62,8.94a45.52,45.52,0,0,1-5,1.51l-.62-3.12a57.5,57.5,0,0,0,5.65-1.33v-6.3h3v11.4h-3Zm9.52-9.24H370v2h5.6v2.94H370V456h4.95v2.81h-13V456h4.93v-2.56h-5.71v-2.94h5.71Zm-.2,15.17a8.65,8.65,0,0,0,2,2.13,17.12,17.12,0,0,0,2.69-2.13Z" transform="translate(-169.79 -370.25)"/>
      <path class="cls-1" d="M400.91,468.6l-.68,3H389.48c-1.48,0-5.27,0-8.28-2.56a11.08,11.08,0,0,1-2.72,3.14l-1.86-2.79a10.48,10.48,0,0,0,2.49-2.68,15.3,15.3,0,0,1-2.08-5.05l2.36-.83a14.08,14.08,0,0,0,1,2.86,28.61,28.61,0,0,0,.67-3.81h-4.11V456.9a30.87,30.87,0,0,0,3.41-4.57h-3.41v-2.82h6.8v2.82a24.24,24.24,0,0,1-3.46,4.84h3.49a33.13,33.13,0,0,1-1.36,9.3A10.4,10.4,0,0,0,389,468.6ZM393.18,450h6v3.5h1.33v2.41H399.2v3.44h-6v1.3h6.35v2.21h-6.35v1.26h7.35v2.34h-7.35v1.78h-2.89v-1.78H384v-2.34h6.28v-1.26h-5.45v-2.21h5.45v-1.3h-4.85v-2.19h4.85v-1.25H384v-2.41h6.28v-1.23h-4.85V450h4.85v-1.45h2.89Zm3.19,2.27h-3.19v1.23h3.19Zm0,3.64h-3.19v1.25h3.19Z" transform="translate(-169.79 -370.25)"/>
      <path class="cls-1" d="M411.66,460.84V461a71,71,0,0,1-9.24,1.26l-.33-2.69c.55,0,1.93-.1,3.87-.23V457.1h-2.84v-2.39h.48l-1.79-1.83a11.57,11.57,0,0,0,3.65-4.52l3.13.37a3.94,3.94,0,0,1-.4,1h5.33v2.31a9.67,9.67,0,0,0,2.18-3.59l3.09.32a6.67,6.67,0,0,1-.32,1h7.18v2.43h-4.4a10,10,0,0,1,.73,1.36l-2.89.8c-.25-.65-.68-1.58-.95-2.16h-1a9.63,9.63,0,0,1-1.83,2.24l-2.44-1.81c.31-.25.38-.32.51-.43h-3.19a12,12,0,0,1,.7,1.46l-2.91.78a12.76,12.76,0,0,0-.81-2.24h-.47a15.31,15.31,0,0,1-2.36,2.54h7.38v2.39h-2.91v2c1.48-.2,2-.3,2.81-.46v1.29c1.66-1,2-2.42,2-5.43h9.1v4.42c0,.35.07.53.3.53.52,0,.57,0,.62-.45,0-.2,0-1.36,0-1.61l2.21.58c-.13,2.71-.18,4-1.68,4h-2.62a1.49,1.49,0,0,1-1.45-1.7v-.58l-1.83,1.68a26.74,26.74,0,0,0-2.42-2.58l1.86-1.69a21.46,21.46,0,0,1,2.39,2.44v-2.81h-4a6.74,6.74,0,0,1-2.66,5.42h1.78v1.06h10.3v2.51h-7.84c1.48,1,3.37,2.21,8.19,3.16l-1.51,2.86a24.56,24.56,0,0,1-9.14-4.84v5.32h-2.91v-5.35c-2.16,2.14-5,3.64-9.09,4.93l-1.46-2.92a21.67,21.67,0,0,0,8.14-3.16h-7.84v-2.51h10.25v-1.06h.32Z" transform="translate(-169.79 -370.25)"/>
    </g>
    <g>
      <path class="cls-1" d="M270.26,435.23l20.43-20,3.81-12a111.93,111.93,0,0,0-15.8,5.63Z" transform="translate(-169.79 -370.25)"/>
      <path class="cls-1" d="M322.65,388.73c-7.08,0-16,2.36-25.57,6.42l3.48-10.95h21.79l14.24-13.95h-45.5l-10.66,33.26A186.21,186.21,0,0,0,246.18,429l.53-.45a159.68,159.68,0,0,1,28.76-19.24C294,399.66,312.28,395,323,398.14c8.63,2.55,10.66,9.69,6.94,19,.34-.52.66-1,1-1.54C340.52,399.8,338.05,388.73,322.65,388.73Z" transform="translate(-169.79 -370.25)"/>
    </g>
  </g>
</svg>
