<svg id="レイヤー_1" data-name="レイヤー 1" xmlns="http://www.w3.org/2000/svg" xmlns:xlink="http://www.w3.org/1999/xlink" width="88.38mm" height="12.06mm" viewBox="0 0 250.51 34.19">
  <defs>
    <style>
      .cls-1 {
        fill: #231815;
      }

      .cls-2 {
        fill: url(#名称未設定グラデーション_2);
      }

      .cls-3 {
        fill: url(#名称未設定グラデーション_28);
      }

      .cls-4 {
        fill: url(#名称未設定グラデーション_16);
      }

      .cls-5 {
        fill: url(#名称未設定グラデーション_16-2);
      }
    </style>
    <radialGradient id="名称未設定グラデーション_2" data-name="名称未設定グラデーション 2" cx="223.19" cy="408.56" r="39.28" gradientUnits="userSpaceOnUse">
      <stop offset="0" stop-color="#fff"/>
      <stop offset="0.49" stop-color="#00a0e9"/>
      <stop offset="0.68" stop-color="#0068b7"/>
      <stop offset="0.85" stop-color="#1d2088"/>
      <stop offset="1" stop-color="#0068b7"/>
    </radialGradient>
    <radialGradient id="名称未設定グラデーション_28" data-name="名称未設定グラデーション 28" cx="223.19" cy="408.56" r="39.28" gradientUnits="userSpaceOnUse">
      <stop offset="0" stop-color="#fff"/>
      <stop offset="0.49" stop-color="#b2b2b2"/>
      <stop offset="0.68" stop-color="#666"/>
      <stop offset="0.85" stop-color="#1a1a1a"/>
      <stop offset="1" stop-color="#666"/>
    </radialGradient>
    <radialGradient id="名称未設定グラデーション_16" data-name="名称未設定グラデーション 16" cx="224.18" cy="409.53" r="48.71" gradientUnits="userSpaceOnUse">
      <stop offset="0" stop-color="#d3edfb"/>
      <stop offset="0.97" stop-color="#00a0e9"/>
    </radialGradient>
    <radialGradient id="名称未設定グラデーション_16-2" cx="195.97" cy="429.18" r="28.57" xlink:href="#名称未設定グラデーション_16"/>
  </defs>
  <title>logo</title>
  <g>
    <g>
      <path class="cls-1" d="M238.66,414.38a10.52,10.52,0,0,1-1.15,2.17l-2-1.36.15-.18H234v1.18a13,13,0,0,0,2.64,3.54l-1.37,1.9A11.75,11.75,0,0,1,234,419.3v7.94h-2.16v-7.85a14,14,0,0,1-2,4.2l-.86-3a17.22,17.22,0,0,0,2.63-5.62h-2.27v-2.19h2.48v-3.27H234v3.27h2.07v1.56a13.83,13.83,0,0,0,1.51-4.34l2.26.26c-.11.53-.21,1-.45,1.88h1.18v-2.63h2.22v2.63h3.9v2.2h-3.9v2.26H247v2.24H243.5a13.43,13.43,0,0,0,3.86,4.54L246.3,426a14.15,14.15,0,0,1-3.5-4.76v6h-2.22v-6a14.18,14.18,0,0,1-3.93,4.68l-1.39-2.14a14.71,14.71,0,0,0,4.65-4.9h-3.83v-2.24h4.5v-2.26Z" transform="translate(-172.37 -403.65)"/>
      <path class="cls-1" d="M248.09,424.3c1.09-.09,2.15-.19,3.78-.37v-5h-3.38v-2.26h9v2.26h-3.23v4.71c1.6-.23,2.82-.44,3.84-.61v2.26c-2.63.57-6.23,1-9.67,1.45Zm15.55-11.95h2.18v2.26h-5.48c.27,6.46,1.94,9.71,2.81,9.71.67,0,1.13-1.64,1.39-2.69l1.56,1.88c-.19.83-.88,3.77-2.75,3.77-1,0-4.93-.85-5.4-12.67h-9.77v-2.26h9.7c0-.53-.06-2.43-.06-2.82h2.43c0,.3,0,1.62,0,2.82H263a12,12,0,0,0-2.13-1.75l1.68-1.22a9.84,9.84,0,0,1,2.5,2Z" transform="translate(-172.37 -403.65)"/>
      <path class="cls-1" d="M270.92,415.63a28.48,28.48,0,0,1-3,1.58l-1.17-2.32c4.57-1.79,6.81-3.87,7.83-5.38h2.67c1,1.28,2.86,3.39,7.78,5.38l-1.21,2.3a19.22,19.22,0,0,1-3-1.6v1.07h-9.9Zm10.91,11.8c-.2-.38-.33-.66-.75-1.34a116.75,116.75,0,0,1-13.1.81l-.3-2.37,2.69,0a27.24,27.24,0,0,0,1.62-3.9h-4.52v-2.2h16.75v2.2h-9.54c-.71,1.68-1.18,2.75-1.77,3.88.61,0,3.75-.08,6.83-.32-.41-.57-.9-1.19-1.9-2.34l2-1.07a30.65,30.65,0,0,1,4.14,5.4Zm-2.5-12.86a18.32,18.32,0,0,1-3.46-3.18,15.16,15.16,0,0,1-3.39,3.18Z" transform="translate(-172.37 -403.65)"/>
      <path class="cls-1" d="M290.75,427.28H288.4v-6.84a21.73,21.73,0,0,1-2.14,1.68l-.78-2.58a13.4,13.4,0,0,0,4.82-5h-4.53v-2.2h2.63v-2.79h2.35v2.79h2.09v2.2a18,18,0,0,1-1.73,2.95,8.92,8.92,0,0,0,2.62,2.19l-1.15,2.2a12.94,12.94,0,0,1-1.83-1.94Zm6.06-17.77h2.39v5h3.88v2.39H299.2v7.38h4.24v2.37H292.26v-2.37h4.55v-7.38h-3.69v-2.39h3.69Z" transform="translate(-172.37 -403.65)"/>
      <path class="cls-1" d="M327.53,427.14a11.53,11.53,0,0,1-3.45-2.74v1.52c0,.49,0,1.39-1.35,1.39h-2.22l-.29-1.69c-.49.24-1.35.68-2.63,1.2l-.77-1.9a23.14,23.14,0,0,0,3.74-1.63,10.34,10.34,0,0,0-1.45-1.53c-.6.47-.88.66-1.26.92l-1.05-1.61v4.38c0,.47,0,1.86-1.43,1.86h-1.7l-.43-2.07h1.36c.34,0,.34-.24.34-.37v-2.09h-1.53a11.53,11.53,0,0,1-1,4.61l-1.79-1.62a8.48,8.48,0,0,0,.83-4.35v-8h5.33v7.45a8.65,8.65,0,0,0,2.18-1.49H317.1v-1.73h3.22a10.17,10.17,0,0,0,.51-1.15h-3.28v-1.64h1.19a10.63,10.63,0,0,0-.51-1.16l2-.47a10.08,10.08,0,0,1,.6,1.63h.49c.13-.65.19-1.16.24-1.63l2.13.09c-.09.66-.17,1-.28,1.54h1.22a11.46,11.46,0,0,0,.68-1.65l2,.56c-.28.61-.32.68-.54,1.09h1.39v1.64H325a6.66,6.66,0,0,0,.51,1.15h3.08v1.73h-1.77a10.81,10.81,0,0,0,2.07,1.47l-1.16,1.77a6.94,6.94,0,0,1-.83-.58,11.91,11.91,0,0,1-1.28,1.22l-1.26-1.32a9.39,9.39,0,0,0,1.18-1.18,12.76,12.76,0,0,1-1-1.38h-3a11.82,11.82,0,0,1-.9,1.11,8.83,8.83,0,0,1,1.52,1.68L321,423l.6,1.77a5,5,0,0,1-.77.49h.86c.4,0,.4-.21.4-.38v-5.17h2v2.48a11.46,11.46,0,0,0,4.59,3Zm-12.35-17.65h2.26v.89h4.61v-.89h2.26v.89h4.23v1.88h-4.23v.83h-2.26v-.83h-4.61v.84h-2.26v-.84h-4.25v-1.88h4.25Zm-1.77,5.95v1.79h1.53v-1.79Zm0,3.61V421h1.53v-1.9Zm9.49-2.56a12.32,12.32,0,0,1-.47,1.15h1.16a10.12,10.12,0,0,1-.34-1.15Z" transform="translate(-172.37 -403.65)"/>
      <path class="cls-1" d="M346.65,410.36v16.41H330.42V410.36Zm-9.3,2.22h-4.57v4.76h4.57Zm0,6.9h-4.57v5h4.57Zm6.94-6.9h-4.68v4.76h4.68Zm0,6.9h-4.68v5h4.68Z" transform="translate(-172.37 -403.65)"/>
      <path class="cls-1" d="M351.75,420.84v6.4h-2.36V412.09h6.82v-2.58h2.39v2.58h6.75v13.45a1.55,1.55,0,0,1-1.67,1.7h-3.45l-.39-2.39h2.67c.28,0,.49-.08.49-.45v-3.54l-1.3,1.84a11,11,0,0,1-4.29-5.57,11.47,11.47,0,0,1-4.38,5.55Zm0-6.49v6.19a9.56,9.56,0,0,0,4.27-6.19Zm11.25,0h-4.29c.23,1.41.83,3.87,4.29,6.23Z" transform="translate(-172.37 -403.65)"/>
      <path class="cls-1" d="M369,425.09c1,0,1.9,0,3-.13v-1.43a23.44,23.44,0,0,1-4,1.26l-.79-2.07a15.18,15.18,0,0,0,5.93-1.84h-5.7v-2H375v-1.29h2.39v1.29H385v2h-2.54l1.69,1a21,21,0,0,1-2.41,1.7,15.17,15.17,0,0,0,3.6,1.28l-1.19,2.31c-2.22-.77-6.32-2.41-8-6.17a12.68,12.68,0,0,1-1.95,1.41v2.39c1.28-.11,2.54-.28,3.89-.47v2c-2.93.44-4.57.57-8.9.85Zm-.23-15.35a12.15,12.15,0,0,1,2.37,2.42l-1.75,1.49a11.37,11.37,0,0,0-2.18-2.39Zm2.71,6.7a34.86,34.86,0,0,1-3.76,1.13l-.47-2.34a41.86,41.86,0,0,0,4.23-1v-4.72h2.28v8.54h-2.28Zm7.13-6.93h2.34V411h4.19v2.2H380.9v1.92h3.7v2.11h-9.73v-2.11h3.69v-1.92h-4.27V411h4.27Zm-.15,11.37a6.86,6.86,0,0,0,1.55,1.6,14.4,14.4,0,0,0,2-1.6Z" transform="translate(-172.37 -403.65)"/>
      <path class="cls-1" d="M404.08,424.57l-.51,2.22h-8.05a9.38,9.38,0,0,1-6.21-1.92,8.48,8.48,0,0,1-2,2.35l-1.4-2.09a7.91,7.91,0,0,0,1.87-2,11.44,11.44,0,0,1-1.57-3.79l1.77-.62a10.39,10.39,0,0,0,.74,2.15,23.86,23.86,0,0,0,.51-2.86h-3.09v-2.2a23.19,23.19,0,0,0,2.56-3.43h-2.56v-2.11h5.1v2.11a17.71,17.71,0,0,1-2.6,3.63h2.62a24.9,24.9,0,0,1-1,7,7.81,7.81,0,0,0,4.93,1.6Zm-5.79-14h4.51v2.62h1V415h-1v2.58h-4.51v1h4.76v1.66h-4.76v.94h5.51v1.75h-5.51v1.33h-2.17v-1.33h-4.7v-1.75h4.7v-.94H392v-1.66h4.08v-1h-3.63V416h3.63v-1h-4.7v-1.8h4.7v-.92h-3.63v-1.7h3.63v-1.09h2.17Zm2.39,1.7h-2.39v.92h2.39Zm0,2.72h-2.39v1h2.39Z" transform="translate(-172.37 -403.65)"/>
      <path class="cls-1" d="M412.14,418.75v.11a53.28,53.28,0,0,1-6.93.94l-.24-2c.41,0,1.44-.07,2.89-.17V416h-2.12v-1.79h.35l-1.33-1.38a8.67,8.67,0,0,0,2.73-3.38l2.35.28a3.09,3.09,0,0,1-.3.75h4v1.73a7.33,7.33,0,0,0,1.64-2.69l2.31.25a4.82,4.82,0,0,1-.24.71h5.38v1.83h-3.29a8.18,8.18,0,0,1,.54,1l-2.16.61c-.19-.49-.51-1.19-.72-1.62h-.71a7.14,7.14,0,0,1-1.38,1.67l-1.82-1.35.37-.32h-2.39a8.25,8.25,0,0,1,.53,1.09l-2.18.58a9,9,0,0,0-.61-1.67h-.35a12.19,12.19,0,0,1-1.77,1.9h5.53V416H410v1.46c1.11-.15,1.52-.22,2.11-.33v1c1.24-.76,1.5-1.81,1.52-4.07h6.81v3.31c0,.27.06.4.23.4.39,0,.43,0,.47-.34,0-.15,0-1,0-1.21l1.65.44c-.09,2-.13,3-1.26,3h-1.95a1.12,1.12,0,0,1-1.09-1.28v-.43l-1.38,1.26a19.92,19.92,0,0,0-1.81-1.94l1.4-1.26a15.6,15.6,0,0,1,1.79,1.83v-2.11h-3a5,5,0,0,1-2,4.06h1.33v.79h7.72v1.89h-5.87a14.6,14.6,0,0,0,6.13,2.37l-1.13,2.14a18.48,18.48,0,0,1-6.85-3.63v4h-2.18v-4a16,16,0,0,1-6.81,3.69l-1.09-2.18a16.29,16.29,0,0,0,6.09-2.37H405v-1.89h7.68v-.79H413Z" transform="translate(-172.37 -403.65)"/>
    </g>
    <g>
      <g>
        <path class="cls-2" d="M198.85,417.7,201,411h11.47l7.49-7.35H196l-5.75,17.94A70.93,70.93,0,0,1,198.85,417.7Z" transform="translate(-172.37 -403.65)"/>
        <path class="cls-3" d="M189.48,424,185,437.85l10.75-10.54,2-6.29A59.39,59.39,0,0,0,189.48,424Z" transform="translate(-172.37 -403.65)"/>
      </g>
      <g>
        <path class="cls-4" d="M217,427.53c5.06-8.33,3.76-14.16-4.35-14.16-10.24,0-27.7,9.31-40.23,21.21l.27-.24a84.23,84.23,0,0,1,15.14-10.13c8.71-5.23,17.44-8.58,23.58-8.58C218.71,415.63,220.46,420.43,217,427.53Z" transform="translate(-172.37 -403.65)"/>
        <path class="cls-5" d="M212.79,418.33c4.54,1.34,5.61,5.1,3.65,10,.18-.27.34-.54.51-.81,3.51-7.1,1.76-11.9-5.59-11.9-6.14,0-14.87,3.35-23.58,8.58C197.53,419.13,207.15,416.66,212.79,418.33Z" transform="translate(-172.37 -403.65)"/>
      </g>
    </g>
  </g>
</svg>
